<?xml version="1.0" encoding="iso-8859-1"?>
<!-- Generator: Adobe Illustrator 19.0.0, SVG Export Plug-In . SVG Version: 6.00 Build 0)  -->
<svg version="1.1" id="Capa_1" xmlns="http://www.w3.org/2000/svg" xmlns:xlink="http://www.w3.org/1999/xlink" x="0px" y="0px"
	 viewBox="0 0 512 512" style="enable-background:new 0 0 512 512;" xml:space="preserve">
<g>
	<g>
		<path d="M502,360h-80c-5.522,0-10,4.478-10,10v102h-60V290c0-5.522-4.478-10-10-10h-80c-5.522,0-10,4.478-10,10v182h-60V210
			c0-5.522-4.477-10-10-10h-80c-5.523,0-10,4.478-10,10v262H40V10c0-5.522-4.477-10-10-10H10C4.477,0,0,4.478,0,10s4.477,10,10,10
			h10v20H10C4.477,40,0,44.478,0,50s4.477,10,10,10h10v20H10C4.477,80,0,84.478,0,90c0,5.522,4.477,10,10,10h10v20H10
			c-5.523,0-10,4.478-10,10c0,5.522,4.477,10,10,10h10v20H10c-5.523,0-10,4.478-10,10c0,5.522,4.477,10,10,10h10v20H10
			c-5.523,0-10,4.478-10,10c0,5.522,4.477,10,10,10h10v20H10c-5.523,0-10,4.478-10,10c0,5.522,4.477,10,10,10h10v20H10
			c-5.523,0-10,4.478-10,10c0,5.522,4.477,10,10,10h10v20H10c-5.523,0-10,4.478-10,10c0,5.522,4.477,10,10,10h10v20H10
			c-5.523,0-10,4.478-10,10c0,5.522,4.477,10,10,10h10v20H10c-5.523,0-10,4.478-10,10c0,5.522,4.477,10,10,10h10v62
			c0,5.522,4.477,10,10,10h62v10c0,5.522,4.477,10,10,10s10-4.478,10-10v-10h20v10c0,5.522,4.477,10,10,10s10-4.478,10-10v-10h20v10
			c0,5.522,4.477,10,10,10s10-4.478,10-10v-10h20v10c0,5.522,4.477,10,10,10s10-4.478,10-10v-10h20v10c0,5.522,4.478,10,10,10
			c5.522,0,10-4.478,10-10v-10h20v10c0,5.522,4.478,10,10,10c5.522,0,10-4.478,10-10v-10h20v10c0,5.522,4.478,10,10,10
			c5.522,0,10-4.478,10-10v-10h20v10c0,5.522,4.478,10,10,10c5.522,0,10-4.478,10-10v-10h20v10c0,5.522,4.478,10,10,10
			c5.522,0,10-4.478,10-10v-10h20v10c0,5.522,4.478,10,10,10c5.522,0,10-4.478,10-10v-10h20v10c0,5.522,4.478,10,10,10
			c5.522,0,10-4.478,10-10c0-19.273,0-115.124,0-132C512,364.478,507.522,360,502,360z M172,472h-60V220h60V472z M332,472h-60V300
			h60V472z M492,472h-60v-92h60V472z"/>
	</g>
</g>
<g>
	<g>
		<path d="M462,260c-8.072,0-15.404,3.21-20.802,8.414l-109.435-54.708C331.917,212.478,332,211.24,332,210
			c0-16.542-13.458-30-30-30c-7.959,0-15.352,3.081-20.839,8.396l-109.398-54.69c0.153-1.229,0.237-2.467,0.237-3.706
			c0-16.542-13.458-30-30-30s-30,13.458-30,30s13.458,30,30,30c7.96,0,15.355-3.082,20.841-8.395l109.396,54.689
			C272.083,207.523,272,208.76,272,210c0,16.542,13.458,30,30,30c7.961,0,15.355-3.083,20.841-8.395l109.396,54.689
			c-0.15,1.216-0.237,2.45-0.237,3.706c0,16.542,13.458,30,30,30s30-13.458,30-30S478.542,260,462,260z M142,140
			c-5.514,0-10-4.486-10-10c0-5.514,4.486-10,10-10c5.514,0,10,4.486,10,10C152,135.505,147.568,140,142,140z M302,220
			c-5.514,0-10-4.486-10-10c0-5.437,4.359-10,10-10c5.514,0,10,4.486,10,10C312,215.452,307.63,220,302,220z M462,300
			c-5.514,0-10-4.486-10-10c0-5.514,4.486-10,10-10c5.514,0,10,4.486,10,10C472,295.514,467.514,300,462,300z"/>
	</g>
</g>
<g>
</g>
<g>
</g>
<g>
</g>
<g>
</g>
<g>
</g>
<g>
</g>
<g>
</g>
<g>
</g>
<g>
</g>
<g>
</g>
<g>
</g>
<g>
</g>
<g>
</g>
<g>
</g>
<g>
</g>
</svg>
