<svg height="512" viewBox="0 0 64 64" width="512" xmlns="http://www.w3.org/2000/svg"><g id="Filled_outline" data-name="Filled outline"><g fill="#87cee9"><path d="m19 52h4v4h-4z"/><path d="m19 21h4v15h-4z"/><path d="m41 52h4v4h-4z" transform="matrix(-1 0 0 -1 86 108)"/></g><path d="m25 15-2 6h-4l-2-6z" fill="#32b1cc"/><path d="m45 36v-13c2.329-.962 4-3.953 4-7 0-3.866-2.686-7-6-7s-6 3.134-6 7c0 3.047 1.671 6.038 4 7v13z" fill="#87cee9"/><path d="m27 50a2 2 0 0 0 -2-2h1a2 2 0 0 0 0-4 2 2 0 0 0 0-4h1a2 2 0 0 0 0-4h-8v-4h-3l-3 4-5 2h-5v12h5l5 2h12a2 2 0 0 0 2-2z" fill="#ffd782"/><path d="m37 50a2 2 0 0 1 2-2h-1a2 2 0 0 1 0-4 2 2 0 0 1 0-4h-1a2 2 0 0 1 0-4h8v-4h3l3 4 5 2h5v12h-5l-5 2h-12a2 2 0 0 1 -2-2z" fill="#ffd782"/><path d="m43 14c.408 0 1 .779 1 2h2c0-2.243-1.318-4-3-4s-3 1.757-3 4h2c0-1.221.592-2 1-2z"/><path d="m3 51h4.808l4.82 1.929a1.012 1.012 0 0 0 .372.071h5v3a1 1 0 0 0 1 1h4a1 1 0 0 0 1-1v-3h1a3 3 0 0 0 3-3 2.967 2.967 0 0 0 -.4-1.471 2.971 2.971 0 0 0 .62-4.529 2.931 2.931 0 0 0 .379-3.471 2.994 2.994 0 0 0 -1.599-5.529h-3v-13.837l1.949-5.847a1.869 1.869 0 0 0 .051-.316v-7h-2v6h-2v-6h-2v6h-2v-6h-2v7a1.869 1.869 0 0 0 .051.316l1.949 5.847v9.837h-2a1 1 0 0 0 -.8.4l-2.832 3.776-4.56 1.824h-4.808a1 1 0 0 0 -1 1v12a1 1 0 0 0 1 1zm19 4h-2v-2h2zm1.613-39-1.334 4h-2.558l-1.334-4zm-1.613 6v13h-2v-13zm-18 17h4a1.012 1.012 0 0 0 .372-.071l5-2a1.006 1.006 0 0 0 .428-.329l2.7-3.6h1.5v3a1 1 0 0 0 1 1h8a1 1 0 0 1 0 2h-11v2h10a1 1 0 0 1 0 2h-10v2h10a1 1 0 0 1 0 2h-10v2h9a1 1 0 0 1 0 2h-11.808l-4.82-1.929a1.012 1.012 0 0 0 -.372-.071h-4z"/><path d="m61 37h-4.808l-4.56-1.824-2.832-3.776a1 1 0 0 0 -.8-.4h-2v-7.377a8.89 8.89 0 0 0 4-7.623c0-4.411-3.14-8-7-8s-7 3.589-7 8a8.89 8.89 0 0 0 4 7.623v11.377h-3a2.994 2.994 0 0 0 -1.6 5.529 2.931 2.931 0 0 0 .38 3.471 2.971 2.971 0 0 0 .621 4.529 2.967 2.967 0 0 0 -.401 1.471 3 3 0 0 0 3 3h1v3a1 1 0 0 0 1 1h4a1 1 0 0 0 1-1v-3h5a1.012 1.012 0 0 0 .372-.071l4.82-1.929h4.808a1 1 0 0 0 1-1v-12a1 1 0 0 0 -1-1zm-23-21c0-3.309 2.243-6 5-6s5 2.691 5 6c0 2.667-1.454 5.279-3.382 6.076a1 1 0 0 0 -.618.924v12h-2v-12a1 1 0 0 0 -.618-.924c-1.928-.797-3.382-3.409-3.382-6.076zm6 39h-2v-2h2zm16-6h-4a1.012 1.012 0 0 0 -.372.071l-4.82 1.929h-11.808a1 1 0 0 1 0-2h9v-2h-10a1 1 0 0 1 0-2h10v-2h-10a1 1 0 0 1 0-2h10v-2h-11a1 1 0 0 1 0-2h8a1 1 0 0 0 1-1v-3h1.5l2.7 3.6a1.006 1.006 0 0 0 .428.329l5 2a1.012 1.012 0 0 0 .372.071h4z"/></g></svg>