<svg id="Filled" height="512" viewBox="0 0 512 512" width="512" xmlns="http://www.w3.org/2000/svg"><path d="m24 40h336v368h-336z" fill="#fae8d8" transform="matrix(-1 0 0 -1 384 448)"/><path d="m136 24h112a32 32 0 0 1 32 32v16a0 0 0 0 1 0 0h-176a0 0 0 0 1 0 0v-16a32 32 0 0 1 32-32z" fill="#7e8488" transform="matrix(-1 0 0 -1 384 96)"/><path d="m328 304s0-48-64-48c0 0-8 48 64 48z" fill="#b0bb74"/><path d="m240 381.751c0 75.429 48 122.249 88 98.249 40 24 88-22.82 88-98.249 0-88-88-45.751-88-45.751s-88-42.249-88 45.751z" fill="#e74444"/><path d="m485.72 282.13-11.73 176a32 32 0 0 1 -31.93 29.87h-4.12a32 32 0 0 1 -31.93-29.87l-3.87-58.13-1.07-15.98-2.13-32.02-1.07-15.98-2.13-32.02-1.07-15.98-.39-5.89a31.989 31.989 0 0 1 31.92-34.13h27.6a31.989 31.989 0 0 1 31.92 34.13z" fill="#fc8d36"/><path d="m480 176a40 40 0 1 1 -69.33-27.18 32 32 0 1 1 58.66 0 39.831 39.831 0 0 1 10.67 27.18z" fill="#b0bb74"/><g fill="#e74444"><circle cx="88" cy="136" r="32"/><circle cx="89" cy="232" r="32"/><circle cx="88" cy="328" r="32"/></g><path d="m483.005 252.673a40.137 40.137 0 0 0 -29.205-12.673h-5.8v-16.679a47.984 47.984 0 0 0 30.408-76.1 40 40 0 1 0 -76.816 0 47.984 47.984 0 0 0 30.408 76.1v16.679h-5.8a40 40 0 0 0 -39.911 42.661l2.518 37.767a64.077 64.077 0 0 0 -20.807-2.493v-277.935a8 8 0 0 0 -8-8h-72v-8a8 8 0 0 0 -8-8h-176a8 8 0 0 0 -8 8v8h-72a8 8 0 0 0 -8 8v368a8 8 0 0 0 8 8h211.422c6.688 32.42 22.78 58.771 44.681 71.171a52.474 52.474 0 0 0 25.958 7.176 49.355 49.355 0 0 0 21.939-5.241 48.689 48.689 0 0 0 37.3 2.752c12.637-4.082 24.356-13.144 33.908-25.889a40.129 40.129 0 0 0 38.729 30.031h4.125a40.1 40.1 0 0 0 39.912-37.339l11.733-176a40.142 40.142 0 0 0 -10.702-29.988zm-75.005-76.673a31.846 31.846 0 0 1 8.532-21.736 8 8 0 0 0 1.468-8.658 23.764 23.764 0 0 1 -2-9.606 24 24 0 0 1 48 0 23.764 23.764 0 0 1 -2 9.606 8 8 0 0 0 1.464 8.658 31.987 31.987 0 0 1 -15.464 52.723v-38.987a8 8 0 0 0 -16 0v38.987a32.057 32.057 0 0 1 -24-30.987zm-296-144h160v8a24.028 24.028 0 0 1 -24 24h-112a24.028 24.028 0 0 1 -24-24zm120 349.75a174.8 174.8 0 0 0 .955 18.25h-200.955v-352h64.805a40.068 40.068 0 0 0 39.195 32h112a40.068 40.068 0 0 0 39.2-32h64.8v271.875a128.144 128.144 0 0 0 -16 4.357v-21.452h-.043a56.87 56.87 0 0 0 -9.3-27.218c-15.187-22.78-42.457-27.562-62.657-27.562a8 8 0 0 0 -7.891 6.685 47.182 47.182 0 0 0 10.568 35.83c10.917 12.885 28.849 20.011 53.323 21.264v12.454c-15.479-5.29-43.427-11.709-64.054 1.268-15.889 9.999-23.946 28.922-23.946 56.249zm86.525-86.073c-18.371-1.305-31.918-6.534-39.481-15.319a30.355 30.355 0 0 1 -7.07-16.08c19.153 1.388 32.915 7.955 40.971 19.574a40.564 40.564 0 0 1 5.58 11.825zm41.855 180.956c-9.679 3.127-19.19 1.951-28.264-3.493a8 8 0 0 0 -8.232 0c-14.478 8.689-27.513 4.856-35.9.108-10.947-6.2-20.863-17.863-27.921-32.845-7.891-16.752-12.063-37.034-12.063-58.653 0-21.445 5.531-35.809 16.439-42.689 11.056-6.972 26.43-5.648 37.378-3.308a114.883 114.883 0 0 1 22.72 7.459 8 8 0 0 0 6.925 0c10.433-5.009 40.131-15.011 58.532-5.043l6.7 100.523c-8.769 19.501-21.925 33.293-36.314 37.941zm117.362-195.033-11.733 176a24.062 24.062 0 0 1 -23.947 22.4h-4.125a24.061 24.061 0 0 1 -23.946-22.4l-3.84-57.6h25.649a8 8 0 0 0 0-16h-26.715l-2.134-32h26.359a8 8 0 0 0 0-16h-27.425l-2.134-32h29.559a8 8 0 0 0 0-16h-30.625l-.427-6.4a24 24 0 0 1 23.942-25.6h27.6a24 24 0 0 1 23.946 25.6z"/><path d="m152 128h160a8 8 0 0 0 0-16h-160a8 8 0 0 0 0 16z"/><path d="m320 216a8 8 0 0 0 -8-8h-160a8 8 0 0 0 0 16h160a8 8 0 0 0 8-8z"/><path d="m232 240h-80a8 8 0 0 0 0 16h80a8 8 0 0 0 0-16z"/><path d="m232 304h-80a8 8 0 0 0 0 16h80a8 8 0 0 0 0-16z"/><path d="m216 336h-64a8 8 0 0 0 0 16h64a8 8 0 0 0 0-16z"/><path d="m152 160h80a8 8 0 0 0 0-16h-80a8 8 0 0 0 0 16z"/><path d="m123 97.753-9.413 7.531a40.034 40.034 0 1 0 10 12.49l9.41-7.527a8 8 0 0 0 -10-12.494zm-11 38.247a24.03 24.03 0 1 1 -11.338-20.375l-17.662 14.128a8 8 0 0 0 10 12.494l17.665-14.132a23.893 23.893 0 0 1 1.335 7.885z"/><path d="m123 193.753-9.413 7.531a40.034 40.034 0 1 0 10 12.49l9.41-7.527a8 8 0 0 0 -10-12.494zm-11 38.247a24.03 24.03 0 1 1 -11.338-20.375l-17.662 14.128a8 8 0 0 0 10 12.494l17.665-14.132a23.893 23.893 0 0 1 1.335 7.885z"/><path d="m123 289.753-9.413 7.531a40.034 40.034 0 1 0 10 12.49l9.41-7.527a8 8 0 0 0 -10-12.494zm-11 38.247a24.03 24.03 0 1 1 -11.338-20.375l-17.662 14.128a8 8 0 0 0 10 12.494l17.665-14.132a23.893 23.893 0 0 1 1.335 7.885z"/></svg>