<?xml version="1.0" encoding="iso-8859-1"?>
<!-- Generator: Adobe Illustrator 19.0.0, SVG Export Plug-In . SVG Version: 6.00 Build 0)  -->
<svg version="1.1" id="Capa_1" xmlns="http://www.w3.org/2000/svg" xmlns:xlink="http://www.w3.org/1999/xlink" x="0px" y="0px"
	 viewBox="0 0 512 512" style="enable-background:new 0 0 512 512;" xml:space="preserve">
<g>
	<path style="fill:#514E73;" d="M444.11,281.05C447.39,274.49,454.17,270,462,270c11.05,0,20,8.95,20,20s-8.95,20-20,20
		s-20-8.95-20-20C442,286.78,442.76,283.74,444.11,281.05z"/>
	<path style="fill:#514E73;" d="M302,190c11.05,0,20,8.95,20,20c0,10.983-8.881,20-20,20c-11.05,0-20-8.95-20-20
		C282,199.017,290.881,190,302,190z"/>
	<path style="fill:#514E73;" d="M162,130c0,10.983-8.881,20-20,20c-11.05,0-20-8.95-20-20s8.95-20,20-20S162,118.95,162,130z"/>
</g>
<path style="fill:#79E59B;" d="M342,290v192c-5.444,0-39.52,0-45,0V290H342z"/>
<path style="fill:#ED4C74;" d="M502,370v112c-5.928,0-43.033,0-49,0V370H502z"/>
<path style="fill:#FFE985;" d="M182,210v272c-5.444,0-39.52,0-45,0V210H182z"/>
<path d="M502,360h-80c-5.522,0-10,4.478-10,10v102h-60V290c0-5.522-4.478-10-10-10h-80c-5.522,0-10,4.478-10,10v182h-60V210
	c0-5.522-4.477-10-10-10h-80c-5.523,0-10,4.478-10,10v262H40V10c0-5.522-4.477-10-10-10H10C4.477,0,0,4.478,0,10s4.477,10,10,10h10
	v20H10C4.477,40,0,44.478,0,50s4.477,10,10,10h10v20H10C4.477,80,0,84.478,0,90s4.477,10,10,10h10v20H10c-5.523,0-10,4.478-10,10
	s4.477,10,10,10h10v20H10c-5.523,0-10,4.478-10,10s4.477,10,10,10h10v20H10c-5.523,0-10,4.478-10,10s4.477,10,10,10h10v20H10
	c-5.523,0-10,4.478-10,10s4.477,10,10,10h10v20H10c-5.523,0-10,4.478-10,10s4.477,10,10,10h10v20H10c-5.523,0-10,4.478-10,10
	s4.477,10,10,10h10v20H10c-5.523,0-10,4.478-10,10s4.477,10,10,10h10v20H10c-5.523,0-10,4.478-10,10s4.477,10,10,10h10v62
	c0,5.522,4.477,10,10,10h62v10c0,5.522,4.477,10,10,10s10-4.478,10-10v-10h20v10c0,5.522,4.477,10,10,10s10-4.478,10-10v-10h20v10
	c0,5.522,4.477,10,10,10s10-4.478,10-10v-10h20v10c0,5.522,4.477,10,10,10s10-4.478,10-10v-10h20v10c0,5.522,4.478,10,10,10
	s10-4.478,10-10v-10h20v10c0,5.522,4.478,10,10,10s10-4.478,10-10v-10h20v10c0,5.522,4.478,10,10,10s10-4.478,10-10v-10h20v10
	c0,5.522,4.478,10,10,10s10-4.478,10-10v-10h20v10c0,5.522,4.478,10,10,10s10-4.478,10-10v-10h20v10c0,5.522,4.478,10,10,10
	s10-4.478,10-10v-10h20v10c0,5.522,4.478,10,10,10s10-4.478,10-10c0-19.273,0-115.124,0-132C512,364.478,507.522,360,502,360z
	 M492,380v92h-60v-92H492z M332,300v172h-60V300H332z M172,220v252h-60V220H172z"/>
<path d="M142,100c-16.542,0-30,13.458-30,30s13.458,30,30,30c7.96,0,15.355-3.082,20.841-8.395l109.396,54.689
	C272.083,207.523,272,208.76,272,210c0,16.542,13.458,30,30,30c7.961,0,15.355-3.083,20.841-8.395l109.396,54.689
	c-0.15,1.216-0.237,2.45-0.237,3.706c0,16.542,13.458,30,30,30s30-13.458,30-30s-13.458-30-30-30c-8.072,0-15.404,3.21-20.802,8.414
	l-109.435-54.708C331.917,212.478,332,211.24,332,210c0-16.542-13.458-30-30-30c-7.959,0-15.352,3.081-20.839,8.396l-109.398-54.69
	c0.153-1.229,0.237-2.467,0.237-3.706C172,113.458,158.542,100,142,100z M142,140c-5.514,0-10-4.486-10-10s4.486-10,10-10
	s10,4.486,10,10C152,135.505,147.568,140,142,140z M462,280c5.514,0,10,4.486,10,10s-4.486,10-10,10s-10-4.486-10-10
	S456.486,280,462,280z M302,200c5.514,0,10,4.486,10,10c0,5.452-4.37,10-10,10c-5.514,0-10-4.486-10-10
	C292,204.563,296.359,200,302,200z"/>
<g>
</g>
<g>
</g>
<g>
</g>
<g>
</g>
<g>
</g>
<g>
</g>
<g>
</g>
<g>
</g>
<g>
</g>
<g>
</g>
<g>
</g>
<g>
</g>
<g>
</g>
<g>
</g>
<g>
</g>
</svg>
