<svg height="512pt" viewBox="-42 0 512 512" width="512pt" xmlns="http://www.w3.org/2000/svg"><path d="m67.925781 87.5c-10.066406 0-18.222656-8.15625-18.222656-18.222656v-43.554688c0-10.0625 8.15625-18.222656 18.222656-18.222656 10.0625 0 18.222657 8.15625 18.222657 18.222656v43.554688c0 10.066406-8.160157 18.222656-18.222657 18.222656zm0 0" fill="#c6c5ca"/><path d="m163.496094 87.5c-10.0625 0-18.222656-8.15625-18.222656-18.222656v-43.554688c0-10.0625 8.160156-18.222656 18.222656-18.222656s18.222656 8.15625 18.222656 18.222656v43.554688c0 10.066406-8.160156 18.222656-18.222656 18.222656zm0 0" fill="#c6c5ca"/><path d="m259.066406 87.5c-10.0625 0-18.222656-8.15625-18.222656-18.222656v-43.554688c0-10.0625 8.160156-18.222656 18.222656-18.222656s18.222656 8.15625 18.222656 18.222656v43.554688c-.003906 10.066406-8.160156 18.222656-18.222656 18.222656zm0 0" fill="#c6c5ca"/><path d="m277.285156 47.5v21.777344c0 10.0625-8.15625 18.222656-18.21875 18.222656-10.066406 0-18.222656-8.15625-18.222656-18.222656v-21.777344h-59.128906v21.777344c0 10.0625-8.15625 18.222656-18.222656 18.222656-10.0625 0-18.21875-8.15625-18.21875-18.222656v-21.777344h-59.128907v21.777344c0 10.0625-8.15625 18.222656-18.222656 18.222656-10.0625 0-18.21875-8.15625-18.21875-18.222656v-21.777344h-42.203125v457h311.992188v-457zm0 0" fill="#fff5cc"/><g fill="#ffc477"><path d="m289.066406 87.5c10.0625 0 18.222656-8.15625 18.222656-18.222656v-21.777344h-30v21.777344c0 3.839844-1.195312 7.398437-3.222656 10.335937 3.285156 4.761719 8.777344 7.886719 15 7.886719zm0 0"/><path d="m193.496094 87.5c10.0625 0 18.222656-8.15625 18.222656-18.222656v-21.777344h-30v21.777344c0 3.839844-1.195312 7.398437-3.222656 10.335937 3.285156 4.761719 8.777344 7.886719 15 7.886719zm0 0"/><path d="m7.5 47.5h30v457h-30zm0 0"/><path d="m97.925781 87.5c10.0625 0 18.222657-8.15625 18.222657-18.222656v-21.777344h-30v21.777344c0 3.839844-1.195313 7.398437-3.222657 10.335937 3.285157 4.761719 8.773438 7.886719 15 7.886719zm0 0"/></g><path d="m235.824219 504.5v-83.667969h83.667969zm0 0" fill="#ffe477"/><path d="m319.492188 420.832031v83.667969h-83.667969zm0 0" fill="#ffb655"/><path d="m358.886719 74.398438h62.117187v27.1875h-62.117187zm0 0" fill="#e0e0e2"/><path d="m358.886719 101.585938h62.117187v336.8125h-62.117187zm0 0" fill="#57a4ff"/><path d="m421.003906 453.929688v-15.53125h-62.117187v15.53125l11.125 19.269531h39.867187zm0 0" fill="#ffdaaa"/><path d="m370.011719 473.199219 18.074219 31.300781h3.71875l18.074218-31.300781zm0 0" fill="#787680"/><path d="m358.886719 74.398438v-17.023438l9.875-9.875h42.367187l9.875 9.875v17.023438zm0 0" fill="#787680"/><path d="m69.703125 69.277344v-43.554688c0-6.367187 3.273437-11.964844 8.222656-15.226562-2.871093-1.886719-6.304687-2.996094-10-2.996094-10.0625 0-18.222656 8.15625-18.222656 18.222656v43.554688c0 10.066406 8.160156 18.222656 18.222656 18.222656 3.695313 0 7.128907-1.105469 10-2.996094-4.949219-3.261718-8.222656-8.855468-8.222656-15.226562zm0 0" fill="#898890"/><path d="m165.273438 69.277344v-43.554688c0-6.367187 3.273437-11.964844 8.222656-15.226562-2.871094-1.886719-6.304688-2.996094-10-2.996094-10.0625 0-18.222656 8.15625-18.222656 18.222656v43.554688c0 10.066406 8.160156 18.222656 18.222656 18.222656 3.695312 0 7.128906-1.105469 10-2.996094-4.949219-3.261718-8.222656-8.855468-8.222656-15.226562zm0 0" fill="#898890"/><path d="m260.84375 69.277344v-43.554688c0-6.367187 3.273438-11.964844 8.222656-15.226562-2.871094-1.886719-6.304687-2.996094-10-2.996094-10.0625 0-18.222656 8.15625-18.222656 18.222656v43.554688c0 10.066406 8.160156 18.222656 18.222656 18.222656 3.695313 0 7.128906-1.105469 10-2.996094-4.949218-3.261718-8.222656-8.855468-8.222656-15.226562zm0 0" fill="#898890"/><path d="m265.824219 420.832031h-30v83.667969l30-30zm0 0" fill="#ffb655"/><path d="m319.492188 420.832031-83.667969 83.667969h30l53.667969-53.667969zm0 0" fill="#ff7956"/><path d="m358.886719 74.398438h30v27.1875h-30zm0 0" fill="#c6c5ca"/><path d="m358.886719 101.585938h30v336.8125h-30zm0 0" fill="#006df0"/><path d="m388.886719 438.398438h-30v15.53125l11.125 19.269531h30l-11.125-19.269531zm0 0" fill="#ff9478"/><path d="m400.011719 473.199219h-30l18.074219 31.300781h3.71875l13.140624-22.757812zm0 0" fill="#57565c"/><path d="m398.761719 47.5h-30l-9.875 9.875v17.023438h30v-17.023438zm0 0" fill="#57565c"/><path d="m67.925781 95c14.183594 0 25.722657-11.539062 25.722657-25.722656v-43.554688c0-14.183594-11.539063-25.722656-25.722657-25.722656-14.183593 0-25.722656 11.539062-25.722656 25.722656v43.554688c0 14.183594 11.539063 25.722656 25.722656 25.722656zm-10.722656-69.277344c0-5.914062 4.8125-10.722656 10.722656-10.722656 5.914063 0 10.722657 4.808594 10.722657 10.722656v43.554688c0 5.914062-4.808594 10.722656-10.722657 10.722656-5.910156 0-10.722656-4.808594-10.722656-10.722656zm0 0"/><path d="m163.496094 95c14.183594 0 25.722656-11.539062 25.722656-25.722656v-43.554688c0-14.183594-11.539062-25.722656-25.722656-25.722656s-25.722656 11.539062-25.722656 25.722656v43.554688c0 14.183594 11.539062 25.722656 25.722656 25.722656zm-10.722656-69.277344c0-5.914062 4.8125-10.722656 10.722656-10.722656s10.722656 4.808594 10.722656 10.722656v43.554688c0 5.914062-4.8125 10.722656-10.722656 10.722656s-10.722656-4.808594-10.722656-10.722656zm0 0"/><path d="m259.066406 95c14.183594 0 25.71875-11.539062 25.71875-25.722656v-43.554688c0-14.183594-11.535156-25.722656-25.71875-25.722656s-25.722656 11.539062-25.722656 25.722656v43.554688c0 14.183594 11.539062 25.722656 25.722656 25.722656zm-10.722656-69.277344c0-5.914062 4.808594-10.722656 10.722656-10.722656 5.910156 0 10.71875 4.808594 10.71875 10.722656v43.554688c0 5.914062-4.808594 10.722656-10.71875 10.722656-5.914062 0-10.722656-4.808594-10.722656-10.722656zm0 0"/><path d="m49.703125 148.5h59.453125v15h-59.453125zm0 0"/><path d="m49.703125 204.542969h59.453125v15h-59.453125zm0 0"/><path d="m49.703125 260.585938h59.453125v15h-59.453125zm0 0"/><path d="m49.703125 316.628906h59.453125v15h-59.453125zm0 0"/><path d="m49.703125 372.671875h59.453125v15h-59.453125zm0 0"/><path d="m129.15625 148.5h148.128906v15h-148.128906zm0 0"/><path d="m129.15625 204.542969h148.128906v15h-148.128906zm0 0"/><path d="m129.15625 260.585938h148.128906v15h-148.128906zm0 0"/><path d="m129.15625 316.628906h148.128906v15h-148.128906zm0 0"/><path d="m129.15625 372.671875h148.128906v15h-148.128906zm0 0"/><path d="m243.324219 428.332031h51.167969v-15h-66.167969v66.167969h15zm0 0"/><path d="m414.234375 40h-48.578125l-14.269531 14.269531v401.667969l14.078125 24.382812 18.289062 31.679688h12.382813l18.070312-31.300781 14.296875-24.761719v-401.667969zm-24.289063 452.722656-6.941406-12.023437h13.882813zm23.558594-40.804687-7.957031 13.78125h-31.203125l-7.957031-13.78125v-6.019531h47.117187zm0-21.019531h-47.117187v-321.8125h47.117187zm0-336.8125h-47.117187v-12.1875h47.117187zm-47.117187-27.1875v-6.417969l5.480469-5.480469h36.15625l5.480468 5.480469v6.417969zm0 0"/><path d="m106.148438 40h19.125v15h-19.125zm0 0"/><path d="m201.71875 40h19.125v15h-19.125zm0 0"/><path d="m297.285156 55h14.707032v362.726562l-79.273438 79.273438h-217.71875v-375.5h148.496094v-15h-148.496094v-51.5h14.703125v-15h-29.703125v472h326.992188v-472h-29.707032zm-43.355468 442 58.0625-58.058594v58.058594zm0 0"/><path d="m397.445312 416.867188h-15v-244.753907h15zm0-254.753907h-15v-15h15zm0-25h-15v-15h15zm0 0" fill="#fff"/></svg>